# xmcd
#
# Track frame offsets:
#   150
#   20139
#   38124
#   52473
#   69680
#   85945
#   99897
#   115985
#   132186
#   153923
#   165773
#   182244
#   199352
#   220752
#   233498
#   250766
#   267239
#   284706
#
# Disc length: 3994 seconds
#
# Revision: 0
# Processed by: cddbd v1.5.2PL0 Copyright (c) Steve Scherf et al.
# Submitted via: uFREEDB ActiveX Control 1.5
#
DISCID=040f9812
DTITLE=Filé Rodeio Show - Filé Rodeio Show
DYEAR=1900
DGENRE=Country
TTITLE0=Goianeiro
TTITLE1=Tá Nervoso Vai Pescá
TTITLE2=O Grito da Galera
TTITLE3=Galera Felicidade
TTITLE4=Amor Descontrolado
TTITLE5=Prá Lá Que Eu Vou
TTITLE6=Estourou o Cano
TTITLE7=Festa de Peão
TTITLE8=O Rei Dos Reis
TTITLE9=Nem Touro Nem Cavalo
TTITLE10=Cowboy
TTITLE11=Cheiro de Mulher
TTITLE12=Medley
TTITLE13=Aconteceu Comigo
TTITLE14=Paixão de Peão
TTITLE15=Gostoso
TTITLE16=Peão Caminhonete
TTITLE17=O Show Vai Começar
EXTD=
EXTT0=
EXTT1=
EXTT2=
EXTT3=
EXTT4=
EXTT5=
EXTT6=
EXTT7=
EXTT8=
EXTT9=
EXTT10=
EXTT11=
EXTT12=
EXTT13=
EXTT14=
EXTT15=
EXTT16=
EXTT17=
PLAYORDER=
